Coordinates
version=1
nRows=54
nColumns=12
inDegrees=yes

Units are S.I. units (second, meters, Newtons, ...)
Angles are in degrees

endheader
time	SC_y	SC_z	SC_x	AC_y	AC_z	AC_x	GH_y	GH_z	GH_yy	EL_x	PS_y
       0.0              -39.33         -3.752          47.27          31.72         -5.252         -2.169         -141.4          64.86          31.29          15.54          134.0
   0.01242              -39.33          -3.75          47.26          31.72          -5.25         -2.168         -141.4          64.86           31.3          15.54          134.0
   0.02485              -39.34         -3.747          47.25          31.73         -5.248         -2.167         -141.4          64.85          31.32          15.54          134.0
   0.03727              -39.34         -3.745          47.25          31.73         -5.246         -2.166         -141.3          64.85          31.34          15.54          134.0
    0.0497              -39.34         -3.742          47.24          31.74         -5.244         -2.165         -141.3          64.84          31.36          15.54          134.0
   0.06212              -39.34         -3.739          47.24          31.74         -5.241         -2.165         -141.3          64.83          31.37          15.54          134.0
   0.07455              -39.35         -3.736          47.23          31.75         -5.239         -2.164         -141.3          64.82           31.4          15.54          134.0
   0.08697              -39.35         -3.733          47.22          31.76         -5.236         -2.163         -141.3          64.82          31.42          15.54          134.0
    0.0994              -39.35         -3.729          47.21          31.77         -5.233         -2.161         -141.2          64.81          31.44          15.54          134.0
    0.1118              -39.35         -3.726           47.2          31.77          -5.23          -2.16         -141.2           64.8          31.47          15.54          134.0
    0.1242              -39.36         -3.721          47.19          31.78         -5.226         -2.159         -141.2          64.79           31.5          15.53          134.0
    0.1367              -39.36         -3.717          47.18          31.79         -5.223         -2.158         -141.2          64.78          31.53          15.53          134.0
    0.1491              -39.37         -3.712          47.17           31.8         -5.219         -2.156         -141.1          64.76          31.56          15.53          134.0
    0.1615              -39.37         -3.707          47.16          31.82         -5.214         -2.154         -141.1          64.75          31.59          15.53          134.0
    0.1739              -39.38         -3.702          47.15          31.83          -5.21         -2.153         -141.1          64.74          31.63          15.53          134.0
    0.1864              -39.38         -3.696          47.13          31.84         -5.205         -2.151         -141.0          64.72          31.67          15.53          134.0
    0.1988              -39.39         -3.689          47.12          31.86         -5.199         -2.149         -141.0          64.71          31.72          15.52          134.0
    0.2112              -39.39         -3.682           47.1          31.87         -5.193         -2.147         -140.9          64.69          31.76          15.52          134.0
    0.2236               -39.4         -3.674          47.08          31.89         -5.187         -2.144         -140.9          64.67          31.82          15.52          134.0
    0.2361              -39.41         -3.666          47.06          31.91         -5.179         -2.141         -140.8          64.65          31.88          15.52          134.0
    0.2485              -39.41         -3.657          47.04          31.93         -5.172         -2.138         -140.8          64.63          31.94          15.51          134.0
    0.2609              -39.42         -3.646          47.02          31.95         -5.163         -2.135         -140.7           64.6          32.01          15.51          134.0
    0.2733              -39.43         -3.635          46.99          31.98         -5.153         -2.132         -140.6          64.57          32.09          15.51          134.0
    0.2858              -39.44         -3.623          46.96          32.01         -5.143         -2.128         -140.5          64.54          32.17           15.5          134.0
    0.2982              -39.45         -3.609          46.93          32.04         -5.131         -2.123         -140.4          64.51          32.27           15.5          134.0
    0.3106              -39.47         -3.593          46.89          32.07         -5.118         -2.118         -140.3          64.47          32.37          15.49          134.0
     0.323              -39.48         -3.576          46.85          32.11         -5.103         -2.113         -140.2          64.43          32.49          15.49          134.0
    0.3355               -39.5         -3.556           46.8          32.16         -5.087         -2.107         -140.1          64.38          32.63          15.48          134.0
    0.3479              -39.52         -3.534          46.75          32.21         -5.068           -2.1         -140.0          64.32          32.78          15.47          134.0
    0.3603              -39.54         -3.509          46.69          32.26         -5.047         -2.092         -139.8          64.26          32.95          15.47          134.0
    0.3727              -39.56          -3.48          46.63          32.33         -5.022         -2.083         -139.6          64.19          33.15          15.46          134.0
    0.3852              -39.59         -3.447          46.55           32.4         -4.995         -2.072         -139.4          64.11          33.37          15.45          133.9
    0.3976              -39.62         -3.409          46.46          32.49         -4.963          -2.06         -139.1          64.01          33.63          15.43          133.9
      0.41              -39.66         -3.365          46.36          32.59         -4.925         -2.046         -138.8           63.9          33.93          15.42          133.9
    0.4224              -39.71         -3.314          46.23           32.7         -4.882          -2.03         -138.5          63.78          34.28           15.4          133.9
    0.4349              -39.76         -3.253          46.09          32.84          -4.83         -2.011         -138.1          63.62           34.7          15.38          133.9
    0.4473              -39.82          -3.18          45.92           33.0         -4.769         -1.988         -137.6          63.44           35.2          15.36          133.9
    0.4597              -39.89         -3.094          45.72           33.2         -4.696         -1.961         -137.1          63.23          35.79          15.33          133.9
    0.4721              -39.98         -2.989          45.47          33.43         -4.607         -1.927         -136.4          62.97          36.51           15.3          133.8
    0.4846              -40.09         -2.861          45.17          33.72         -4.499         -1.887         -135.5          62.65          37.38          15.26          133.8
     0.497              -40.23         -2.702           44.8          34.08         -4.365         -1.837         -134.5          62.26          38.46          15.21          133.8
    0.5094               -40.4         -2.505          44.33          34.52         -4.198         -1.775         -133.2          61.77          39.81          15.14          133.7
    0.5218              -40.61         -2.257          43.75          35.08         -3.988         -1.696         -131.6          61.15          41.51          15.06          133.7
    0.5343              -40.88         -1.941          43.01          35.79         -3.721         -1.596         -129.5          60.37          43.67          14.96          133.6
    0.5467              -41.22         -1.536          42.06           36.7          -3.38         -1.468         -126.8          59.36          46.43          14.83          133.5
    0.5591              -41.67         -1.018          40.84          37.87         -2.941         -1.304         -123.4          58.08          49.98          14.66          133.4
    0.5715              -42.23        -0.3548          39.28          39.36         -2.381         -1.095         -119.0          56.43          54.51          14.45          133.2
     0.584              -42.94         0.4785          37.32          41.24         -1.676        -0.8316         -113.6          54.36          60.21          14.18          133.0
    0.5964              -43.81          1.494          34.93          43.53        -0.8182        -0.5106         -106.9          51.84          67.15          13.85          132.8
    0.6088              -44.81          2.671          32.16          46.18         0.1768        -0.1386         -99.15          48.92           75.2          13.47          132.5
    0.6212               -45.9          3.946          29.17          49.05          1.254         0.2642         -90.77          45.76          83.91          13.06          132.2
    0.6337              -46.99           5.22          26.17          51.92          2.331          0.667         -82.39           42.6          92.63          12.65          131.9
    0.6461              -47.99          6.398           23.4          54.57          3.326          1.039         -74.65          39.68          100.7          12.27          131.7
    0.6585              -48.86          7.413          21.01          56.85          4.185           1.36         -67.97          37.16          107.6          11.94          131.4
